<svg width="20" height="20" viewBox="0 0 20 20" fill="none" xmlns="http://www.w3.org/2000/svg">
<path d="M14.9036 5.99727C14.9036 5.49875 14.4995 5.09622 14.0029 5.09622C13.5062 5.09622 13.1018 5.49875 13.1018 5.99727C13.1018 6.49395 13.5062 6.89648 14.0029 6.89648C14.4995 6.89648 14.9036 6.49395 14.9036 5.99727" fill="url(#paint0_linear_2958_31656)"/>
<path d="M14.9036 5.99727C14.9036 5.49875 14.4995 5.09622 14.0029 5.09622C13.5062 5.09622 13.1018 5.49875 13.1018 5.99727C13.1018 6.49395 13.5062 6.89648 14.0029 6.89648C14.4995 6.89648 14.9036 6.49395 14.9036 5.99727" fill="white"/>
<path d="M16.1041 13.0303C16.0707 13.7616 15.9484 14.1589 15.8469 14.4228C15.7105 14.7727 15.5478 15.0229 15.2839 15.2853C15.0229 15.5478 14.7727 15.7101 14.4228 15.845C14.1589 15.9481 13.7601 16.0707 13.0288 16.1056C12.2382 16.1404 12.0039 16.1479 9.99907 16.1479C7.99606 16.1479 7.75994 16.1404 6.96933 16.1056C6.23805 16.0707 5.84108 15.9481 5.57716 15.845C5.22542 15.7101 4.97709 15.5478 4.71467 15.2853C4.45038 15.0229 4.28767 14.7727 4.15313 14.4228C4.05155 14.1589 3.9274 13.7616 3.89587 13.0303C3.85734 12.2397 3.85028 12.0017 3.85028 10.0009C3.85028 7.99607 3.85734 7.75994 3.89587 6.96934C3.9274 6.23805 4.05155 5.84108 4.15313 5.57494C4.28767 5.22542 4.45038 4.9767 4.71467 4.71428C4.97709 4.45224 5.22542 4.28951 5.57716 4.15313C5.84108 4.04971 6.23805 3.92887 6.96933 3.89404C7.75994 3.85918 7.99606 3.85028 9.99907 3.85028C12.0039 3.85028 12.2382 3.85918 13.0288 3.89404C13.7601 3.92887 14.1589 4.04971 14.4228 4.15313C14.7727 4.28951 15.0229 4.45224 15.2839 4.71428C15.5478 4.9767 15.7105 5.22542 15.8469 5.57494C15.9484 5.84108 16.0707 6.23805 16.1041 6.96934C16.1408 7.75994 16.1497 7.99607 16.1497 10.0009C16.1497 12.0017 16.1408 12.2397 16.1041 13.0303V13.0303ZM17.4544 6.90782C17.4177 6.10868 17.2917 5.5627 17.1045 5.08717C16.914 4.59382 16.6586 4.17573 16.2405 3.75763C15.8243 3.34139 15.4062 3.08601 14.9128 2.89327C14.4354 2.70794 13.8913 2.58042 13.0918 2.54559C12.2923 2.50703 12.0369 2.5 9.99907 2.5C7.96307 2.5 7.70584 2.50703 6.90634 2.54559C6.10868 2.58042 5.56493 2.70794 5.08531 2.89327C4.59382 3.08601 4.17573 3.34139 3.75949 3.75763C3.34139 4.17573 3.086 4.59382 2.89363 5.08717C2.7083 5.5627 2.58229 6.10868 2.54373 6.90782C2.5089 7.70732 2.5 7.96307 2.5 10.0009C2.5 12.0369 2.5089 12.2923 2.54373 13.0918C2.58229 13.8895 2.7083 14.435 2.89363 14.9128C3.086 15.4043 3.34139 15.8243 3.75949 16.2405C4.17573 16.6567 4.59382 16.914 5.08531 17.1064C5.56493 17.2917 6.10868 17.4177 6.90634 17.4544C7.70584 17.4911 7.96307 17.5 9.99907 17.5C12.0369 17.5 12.2923 17.4911 13.0918 17.4544C13.8913 17.4177 14.4354 17.2917 14.9128 17.1064C15.4062 16.914 15.8243 16.6567 16.2405 16.2405C16.6586 15.8243 16.914 15.4043 17.1045 14.9128C17.2917 14.435 17.4177 13.8895 17.4544 13.0918C17.4911 12.2923 17.5 12.0369 17.5 10.0009C17.5 7.96307 17.4911 7.70732 17.4544 6.90782V6.90782Z" fill="white"/>
<path d="M9.99865 12.4994C8.61871 12.4994 7.49896 11.3815 7.49896 10.0016C7.49896 8.61939 8.61871 7.50004 9.99865 7.50004C11.379 7.50004 12.5002 8.61939 12.5002 10.0016C12.5002 11.3815 11.379 12.4994 9.99865 12.4994V12.4994ZM9.99865 6.14789C7.87147 6.14789 6.14868 7.87438 6.14868 10.0016C6.14868 12.1269 7.87147 13.8516 9.99865 13.8516C12.1258 13.8516 13.8505 12.1269 13.8505 10.0016C13.8505 7.87438 12.1258 6.14789 9.99865 6.14789Z" fill="white"/>
<defs>
<linearGradient id="paint0_linear_2958_31656" x1="2.63493" y1="17.3454" x2="16.2503" y2="3.73012" gradientUnits="userSpaceOnUse">
<stop stop-color="#FFD521"/>
<stop offset="0.05" stop-color="#FFD521"/>
<stop offset="0.501119" stop-color="#F50000"/>
<stop offset="0.95" stop-color="#B900B4"/>
<stop offset="0.950079" stop-color="#B900B4"/>
<stop offset="1" stop-color="#B900B4"/>
</linearGradient>
</defs>
</svg>
