<svg width="57" height="57" viewBox="0 0 57 57" fill="none" xmlns="http://www.w3.org/2000/svg">
<path d="M28.2004 16.6992C21.2004 16.6992 15.4004 22.3992 15.4004 29.4992C15.4004 36.5992 21.1004 42.2992 28.2004 42.2992C35.3004 42.2992 41.0004 36.4992 41.0004 29.4992C41.0004 22.4992 35.2004 16.6992 28.2004 16.6992ZM28.2004 37.6992C23.7004 37.6992 20.0004 33.9992 20.0004 29.4992C20.0004 24.9992 23.7004 21.2992 28.2004 21.2992C32.7004 21.2992 36.4004 24.9992 36.4004 29.4992C36.4004 33.9992 32.7004 37.6992 28.2004 37.6992Z" fill="white"/>
<path d="M41.4996 19.3C43.1012 19.3 44.3996 18.0016 44.3996 16.4C44.3996 14.7984 43.1012 13.5 41.4996 13.5C39.898 13.5 38.5996 14.7984 38.5996 16.4C38.5996 18.0016 39.898 19.3 41.4996 19.3Z" fill="white"/>
<path d="M49.0004 8.90078C46.4004 6.20078 42.7004 4.80078 38.5004 4.80078H17.9004C9.20039 4.80078 3.40039 10.6008 3.40039 19.3008V39.8008C3.40039 44.1008 4.80039 47.8008 7.60039 50.5008C10.3004 53.1008 13.9004 54.4008 18.0004 54.4008H38.4004C42.7004 54.4008 46.3004 53.0008 48.9004 50.5008C51.6004 47.9008 53.0004 44.2008 53.0004 39.9008V19.3008C53.0004 15.1008 51.6004 11.5008 49.0004 8.90078ZM48.6004 39.9008C48.6004 43.0008 47.5004 45.5008 45.7004 47.2008C43.9004 48.9008 41.4004 49.8008 38.4004 49.8008H18.0004C15.0004 49.8008 12.5004 48.9008 10.7004 47.2008C8.90039 45.4008 8.00039 42.9008 8.00039 39.8008V19.3008C8.00039 16.3008 8.90039 13.8008 10.7004 12.0008C12.4004 10.3008 15.0004 9.40078 18.0004 9.40078H38.6004C41.6004 9.40078 44.1004 10.3008 45.9004 12.1008C47.6004 13.9008 48.6004 16.4008 48.6004 19.3008V39.9008Z" fill="white"/>
</svg>
