<svg width="512" height="512" viewBox="0 0 512 512" fill="none" xmlns="http://www.w3.org/2000/svg">
<path fill-rule="evenodd" clip-rule="evenodd" d="M105.321 49.8906H406.681C437.294 49.8906 462.111 74.7075 462.111 105.321V406.681C462.111 437.294 437.294 462.111 406.681 462.111H105.321C74.7075 462.111 49.8906 437.294 49.8906 406.681V105.321C49.8906 74.7075 74.7075 49.8906 105.321 49.8906ZM163.011 189.041C177.624 189.041 189.471 177.195 189.471 162.581C189.471 147.968 177.624 136.121 163.011 136.121C148.397 136.121 136.551 147.968 136.551 162.581C136.551 177.195 148.397 189.041 163.011 189.041ZM138.561 216.001V374.081H187.461V216.001H138.561ZM302.821 215.771C324.001 212.771 337.601 217.181 337.601 217.181C337.601 217.181 378.001 225.001 375.841 264.901V374.141H326.941V284.911C326.941 276.941 324.501 269.001 319.211 263.001C309.451 252.011 298.311 254.241 298.311 254.241C294.801 254.591 291.374 255.524 288.171 257.001C276.341 262.411 269.341 274.951 269.341 288.001V374.081H220.441V216.001H269.341V240.451C271.759 233.976 276.017 228.349 281.591 224.261C287.832 219.675 295.138 216.753 302.821 215.771Z" fill="white"/>
</svg>
