<svg width="96" height="96" viewBox="0 0 96 96" fill="none" xmlns="http://www.w3.org/2000/svg">
<g clip-path="url(#clip0_5019_17139)">
<path d="M72 16V20H64V16C64 13.8 62.2 12 60 12H36C33.8 12 32 13.8 32 16V20H24V16C24 13.8 22.2 12 20 12C17.8 12 16 13.8 16 16V80C16 82.2 17.8 84 20 84C22.2 84 24 82.2 24 80V76H32V80C32 82.2 33.8 84 36 84H60C62.2 84 64 82.2 64 80V76H72V80C72 82.2 73.8 84 76 84C78.2 84 80 82.2 80 80V16C80 13.8 78.2 12 76 12C73.8 12 72 13.8 72 16ZM32 68H24V60H32V68ZM32 52H24V44H32V52ZM32 36H24V28H32V36ZM72 68H64V60H72V68ZM72 52H64V44H72V52ZM72 36H64V28H72V36Z" fill="#BBFF00"/>
</g>
<defs>
<clipPath id="clip0_5019_17139">
<rect width="96" height="96" fill="white"/>
</clipPath>
</defs>
</svg>
