<svg width="34" height="19" viewBox="0 0 34 19" fill="none" xmlns="http://www.w3.org/2000/svg">
<rect y="0.5" width="34" height="18" rx="2" fill="url(#paint0_linear_6847_43157)" style=""/>
<path d="M4.81 13.5V6.19H7.72C9.16 6.19 10.04 6.94 10.04 8.16C10.04 8.97 9.68 9.55 8.99 9.84C9.76 10.09 10.15 10.67 10.15 11.52C10.15 12.77 9.28 13.5 7.77 13.5H4.81ZM7.61 7.32H6.09V9.31H7.64C8.34 9.31 8.73 8.94 8.73 8.29C8.73 7.66 8.33 7.32 7.61 7.32ZM7.72 10.39H6.09V12.37H7.72C8.44 12.37 8.84 12.02 8.84 11.36C8.84 10.74 8.43 10.39 7.72 10.39ZM16.2637 13.5H11.7237V6.19H16.2637V7.37H13.0037V9.25H15.9237V10.38H13.0037V12.32H16.2637V13.5ZM17.4114 7.37V6.19H22.9714V7.37H20.8314V13.5H19.5514V7.37H17.4114ZM24.3255 13.5H22.9955L25.6355 6.19H26.9455L29.5855 13.5H28.2355L27.6455 11.81H24.9155L24.3255 13.5ZM26.1255 8.37L25.2955 10.73H27.2755L26.4355 8.37C26.3755 8.18 26.3055 7.96 26.2855 7.81C26.2555 7.95 26.1955 8.17 26.1255 8.37Z" fill="white" style="fill:white;fill-opacity:1;"/>
<defs>
<linearGradient id="paint0_linear_6847_43157" x1="-1.10723e-06" y1="-0.499998" x2="36.5" y2="24" gradientUnits="userSpaceOnUse">
<stop stop-color="#412BC3" style="stop-color:#412BC3;stop-color:color(display-p3 0.2549 0.1686 0.7647);stop-opacity:1;"/>
<stop offset="1" stop-color="#1CB38D" style="stop-color:#1CB38D;stop-color:color(display-p3 0.1098 0.7020 0.5529);stop-opacity:1;"/>
</linearGradient>
</defs>
</svg>
