<svg width="96" height="96" viewBox="0 0 96 96" fill="none" xmlns="http://www.w3.org/2000/svg">
<g clip-path="url(#clip0_259_1114)">
<path d="M76.9199 61.04L66.7599 59.88C64.3199 59.6 61.9199 60.44 60.1999 62.16L52.8399 69.52C41.5199 63.76 32.2399 54.52 26.4799 43.16L33.8799 35.76C35.5999 34.04 36.4399 31.64 36.1599 29.2L34.9999 19.12C34.5199 15.08 31.1199 12.04 27.0399 12.04H20.1199C15.5999 12.04 11.8399 15.8 12.1199 20.32C14.2399 54.48 41.5599 81.76 75.6799 83.88C80.1999 84.16 83.9599 80.4 83.9599 75.88V68.96C83.9999 64.92 80.9599 61.52 76.9199 61.04Z" fill="white" style="fill:white;fill-opacity:1;"/>
</g>
<defs>
<clipPath id="clip0_259_1114">
<rect width="96" height="96" fill="white" style="fill:white;fill-opacity:1;"/>
</clipPath>
</defs>
</svg>
