<?xml version="1.0" encoding="UTF-8"?><svg id="Layer_2" xmlns="http://www.w3.org/2000/svg" xmlns:xlink="http://www.w3.org/1999/xlink" viewBox="0 0 1920 24"><defs><style>.cls-1{clip-path:url(#clippath);}.cls-2{fill:none;}.cls-2,.cls-3,.cls-4,.cls-5,.cls-6,.cls-7,.cls-8,.cls-9,.cls-10,.cls-11,.cls-12,.cls-13,.cls-14,.cls-15,.cls-16,.cls-17,.cls-18,.cls-19{stroke-width:0px;}.cls-3{fill:#6311bb;}.cls-4{fill:#470086;}.cls-5{fill:#7333ca;}.cls-6{fill:#8356d8;}.cls-7{fill:#4f0098;}.cls-8{fill:#7b45d1;}.cls-9{fill:#5300a2;}.cls-10{fill:#4b008f;}.cls-11{fill:#5b00b4;}.cls-12{fill:#5700ab;}.cls-13{fill:#9b89ee;}.cls-14{fill:#3b006a;}.cls-15{fill:#3f0073;}.cls-16{fill:#43007d;}.cls-17{fill:#9378e7;}.cls-18{fill:#8b67e0;}.cls-19{fill:#6b22c3;}</style><clipPath id="clippath"><rect class="cls-2" width="1920" height="24"/></clipPath></defs><g id="Layer_1-2"><g class="cls-1"><rect class="cls-13" x="1727.58" y="-9.92" width="231.83" height="41.31"/><rect class="cls-17" x="1692.2" y="-9.92" width="231.83" height="41.31"/><rect class="cls-18" x="1656.82" y="-9.92" width="231.83" height="41.31"/><rect class="cls-6" x="1621.45" y="-9.92" width="231.83" height="41.31"/><rect class="cls-8" x="1586.07" y="-9.92" width="231.83" height="41.31"/><rect class="cls-5" x="1550.69" y="-9.92" width="231.83" height="41.31"/><rect class="cls-19" x="1515.31" y="-9.92" width="231.83" height="41.31"/><rect class="cls-3" x="1479.94" y="-9.92" width="231.83" height="41.31"/><rect class="cls-11" x="1444.56" y="-9.92" width="231.83" height="41.31"/><rect class="cls-12" x="1410.5" y="-9.92" width="231.83" height="41.31"/><rect class="cls-9" x="1376.43" y="-9.92" width="231.83" height="41.31"/><rect class="cls-7" x="1342.36" y="-9.92" width="231.83" height="41.31"/><rect class="cls-10" x="1308.3" y="-9.92" width="231.83" height="41.31"/><rect class="cls-4" x="1274.23" y="-9.92" width="231.83" height="41.31"/><rect class="cls-16" x="1240.16" y="-9.92" width="231.83" height="41.31"/><rect class="cls-15" x="1206.1" y="-9.92" width="231.83" height="41.31"/><rect class="cls-14" x="1172.03" y="-9.92" width="231.83" height="41.31"/><rect class="cls-14" x="1134.03" y="-9.92" width="231.83" height="41.31"/><rect class="cls-14" x="1096.04" y="-9.92" width="231.83" height="41.31"/><rect class="cls-14" x="1058.04" y="-9.92" width="231.83" height="41.31"/><rect class="cls-14" x="1020.04" y="-9.92" width="231.83" height="41.31"/><rect class="cls-14" x="982.04" y="-9.92" width="231.83" height="41.31"/><rect class="cls-14" x="944.05" y="-9.92" width="231.83" height="41.31"/><rect class="cls-14" x="906.05" y="-9.92" width="231.83" height="41.31"/><rect class="cls-14" x="868.05" y="-9.92" width="231.83" height="41.31"/><rect class="cls-15" x="835.3" y="-9.92" width="231.83" height="41.31"/><rect class="cls-16" x="802.54" y="-9.92" width="231.83" height="41.31"/><rect class="cls-4" x="769.78" y="-9.92" width="231.83" height="41.31"/><rect class="cls-10" x="737.03" y="-9.92" width="231.83" height="41.31"/><rect class="cls-7" x="704.27" y="-9.92" width="231.83" height="41.31"/><rect class="cls-9" x="671.51" y="-9.92" width="231.83" height="41.31"/><rect class="cls-12" x="638.76" y="-9.92" width="231.83" height="41.31"/><rect class="cls-11" x="606" y="-9.92" width="231.83" height="41.31"/><rect class="cls-12" x="570.7" y="-9.92" width="231.83" height="41.31"/><rect class="cls-9" x="535.4" y="-9.92" width="231.83" height="41.31"/><rect class="cls-7" x="500.1" y="-9.92" width="231.83" height="41.31"/><rect class="cls-10" x="464.81" y="-9.92" width="231.83" height="41.31"/><rect class="cls-4" x="429.51" y="-9.92" width="231.83" height="41.31"/><rect class="cls-16" x="394.21" y="-9.92" width="231.83" height="41.31"/><rect class="cls-15" x="358.91" y="-9.92" width="231.83" height="41.31"/><rect class="cls-14" x="323.61" y="-9.92" width="231.83" height="41.31"/><rect class="cls-15" x="289.54" y="-9.92" width="231.83" height="41.31"/><rect class="cls-16" x="255.48" y="-9.92" width="231.83" height="41.31"/><rect class="cls-4" x="221.41" y="-9.92" width="231.83" height="41.31"/><rect class="cls-10" x="187.34" y="-9.92" width="231.83" height="41.31"/><rect class="cls-7" x="153.28" y="-9.92" width="231.83" height="41.31"/><rect class="cls-9" x="119.21" y="-9.92" width="231.83" height="41.31"/><rect class="cls-12" x="85.14" y="-9.92" width="231.83" height="41.31"/><rect class="cls-11" x="51.08" y="-9.92" width="231.83" height="41.31"/><rect class="cls-3" x="18.32" y="-9.92" width="231.83" height="41.31"/><rect class="cls-19" x="-14.44" y="-9.92" width="231.83" height="41.31"/><rect class="cls-5" x="-47.19" y="-9.92" width="231.83" height="41.31"/><rect class="cls-8" x="-79.95" y="-9.92" width="231.83" height="41.31"/><rect class="cls-6" x="-112.7" y="-9.92" width="231.83" height="41.31"/><rect class="cls-18" x="-145.46" y="-9.92" width="231.83" height="41.31"/><rect class="cls-17" x="-178.22" y="-9.92" width="231.83" height="41.31"/><rect class="cls-13" x="-210.97" y="-9.92" width="231.83" height="41.31"/></g></g></svg>